<svg width="33" height="33" viewBox="0 0 33 33" fill="none" xmlns="http://www.w3.org/2000/svg">
<path d="M10.3778 29.907C22.8307 29.907 29.6419 19.5899 29.6419 10.6429C29.6419 10.3499 29.6419 10.0581 29.6221 9.76775C30.9472 8.80931 32.091 7.62259 33 6.26315C31.7644 6.81095 30.4535 7.17004 29.1113 7.32839C30.5247 6.48234 31.5826 5.15147 32.0879 3.58355C30.7589 4.37226 29.3049 4.92806 27.7886 5.22695C26.7678 4.14149 25.4177 3.42273 23.9473 3.18189C22.4768 2.94105 20.968 3.19156 19.6542 3.89465C18.3405 4.59774 17.2951 5.71421 16.6798 7.0713C16.0645 8.42839 15.9136 9.95044 16.2505 11.4019C13.5587 11.2669 10.9254 10.5673 8.5215 9.34865C6.11759 8.12998 3.9968 6.41943 2.2968 4.32803C1.431 5.81852 1.16582 7.58297 1.55526 9.26211C1.9447 10.9413 2.95947 12.4088 4.39296 13.3661C3.31544 13.3345 2.26139 13.0438 1.32 12.5186V12.6044C1.32043 14.1676 1.86155 15.6825 2.85157 16.8922C3.8416 18.1019 5.21958 18.9319 6.7518 19.2414C5.75504 19.5133 4.7092 19.553 3.69468 19.3575C4.1275 20.7027 4.96984 21.8791 6.10395 22.7221C7.23807 23.5651 8.60726 24.0327 10.0201 24.0594C8.61635 25.1628 7.00881 25.9786 5.28945 26.4601C3.5701 26.9417 1.77267 27.0795 0 26.8657C3.09627 28.8526 6.6989 29.9065 10.3778 29.9017" fill="#1DA1F2"/>
</svg>
